PathFileType  4	(X/Y/Z) /dataNAS/people/anoopai/OpenCap/opencap-core/Examples/Data/d712a0c6-d1a0-423f-8dc2-b78d41b5c55e/MarkerData/PreAugmentation
DataRate	CameraRate	NumFrames	NumMarkers	Units	OrigDataRate	OrigDataStartFrame	OrigNumFrames
60.0	60.0	6	20	m	60.0	656	874
Frame#	Time	Neck			RShoulder			RElbow			RWrist			LShoulder			LElbow			LWrist			midHip			RHip			RKnee			RAnkle			LHip			LKnee			LAnkle			LBigToe			LSmallToe			LHeel			RBigToe			RSmallToe			RHeel			
		X1	Y1	Z1	X2	Y2	Z2	X3	Y3	Z3	X4	Y4	Z4	X5	Y5	Z5	X6	Y6	Z6	X7	Y7	Z7	X8	Y8	Z8	X9	Y9	Z9	X10	Y10	Z10	X11	Y11	Z11	X12	Y12	Z12	X13	Y13	Z13	X14	Y14	Z14	X15	Y15	Z15	X16	Y16	Z16	X17	Y17	Z17	X18	Y18	Z18	X19	Y19	Z19	X20	Y20	Z20	

656	10.9166667	-0.1669100	0.3576800	-0.2849500	-0.1295700	0.3715700	-0.4317200	0.0910400	0.0811700	-0.4051000	0.0236000	-0.1726700	-0.3645400	-0.2009000	0.3444300	-0.1384500	30.9513200	12.4505900	13.1005800	0.2990900	0.0645100	0.1437500	0.4042800	0.2710800	-0.0825300	0.4428300	0.2744900	-0.1797100	0.3370200	-0.1668900	-0.2728500	0.6937000	-0.2444100	-0.0909000	0.3719400	0.2698300	0.0168200	0.1993300	-0.1629900	0.0035200	0.5838000	-0.2239700	0.1013400	0.5946700	-0.4262900	0.1488600	0.5947800	-0.4260500	0.1489300	0.6622400	-0.2146100	0.1168400	0.6889800	-0.4511700	-0.1198000	0.6889500	-0.4509700	-0.1198400	0.7599000	-0.2381000	-0.0517000
657	10.9333333	-0.1585200	0.3612400	-0.2829600	-0.1208300	0.3765600	-0.4297600	0.0878400	0.0919100	-0.4074800	0.0290300	-0.1697300	-0.3645300	-0.1931300	0.3488500	-0.1365300	18.6458500	7.5033900	7.7395900	0.2842700	0.0576000	0.1349400	0.4090200	0.2714100	-0.0808200	0.4472100	0.2749200	-0.1781200	0.3409100	-0.1648000	-0.2720900	0.6942000	-0.2455200	-0.0907200	0.3770600	0.2700200	0.0186500	0.1993600	-0.1634800	0.0035600	0.5836600	-0.2243200	0.1011400	0.5940900	-0.4260900	0.1488200	0.5942000	-0.4258300	0.1488900	0.6618700	-0.2157700	0.1165900	0.6879200	-0.4518600	-0.1201400	0.6879000	-0.4516600	-0.1201800	0.7597000	-0.2388500	-0.0518100
658	10.9500000	-0.1499500	0.3641900	-0.2807100	-0.1119300	0.3821700	-0.4277100	0.0943000	0.1146400	-0.4114400	0.0343800	-0.1664300	-0.3644300	-0.1847000	0.3485900	-0.1340600	13.8558700	5.5931100	5.8766200	0.2750200	0.0525700	0.1305400	0.4136700	0.2715400	-0.0792700	0.4513800	0.2750600	-0.1767300	0.3448400	-0.1628600	-0.2711200	0.6946700	-0.2466600	-0.0905400	0.3821900	0.2701700	0.0203200	0.1994800	-0.1638000	0.0036300	0.5835900	-0.2248700	0.1007900	0.5937500	-0.4265600	0.1487500	0.5938700	-0.4263100	0.1488100	0.6615000	-0.2163600	0.1161500	0.6870500	-0.4529700	-0.1203500	0.6870300	-0.4527600	-0.1203900	0.7597400	-0.2408300	-0.0516700
659	10.9666667	-0.1416300	0.3676500	-0.2784500	-0.1029100	0.3874300	-0.4254500	0.1360000	0.1405000	-0.4062100	0.0397100	-0.1629800	-0.3642000	-0.1768100	0.3515400	-0.1317400	11.3878500	4.6023000	4.8184800	0.2714300	0.0506000	0.1260700	0.4181200	0.2716100	-0.0778800	0.4552500	0.2750500	-0.1755300	0.3485600	-0.1609200	-0.2700000	0.6951100	-0.2479900	-0.0903600	0.3872400	0.2702800	0.0218700	0.1997300	-0.1639500	0.0037300	0.5836000	-0.2256600	0.1003400	0.5930900	-0.4267500	0.1482900	0.5932000	-0.4265100	0.1483500	0.6613900	-0.2169600	0.1156800	0.6860800	-0.4538100	-0.1207000	0.6860700	-0.4536000	-0.1207300	0.7594300	-0.2428900	-0.0516800
660	10.9833333	-0.1336500	0.3708900	-0.2761600	-0.0938300	0.3916500	-0.4229000	0.2640000	0.1882800	-0.3794100	0.0452200	-0.1599800	-0.3637500	-0.1688800	0.3507600	-0.1290800	10.0360300	4.0616300	4.2635500	0.2668800	0.0476100	0.1252000	0.4223300	0.2715100	-0.0765800	0.4587700	0.2748800	-0.1744600	0.3520200	-0.1592600	-0.2687400	0.6954800	-0.2495100	-0.0901800	0.3921000	0.2702800	0.0233400	0.2001500	-0.1639500	0.0038400	0.5836600	-0.2265700	0.0997700	0.5924600	-0.4271900	0.1476400	0.5925600	-0.4269500	0.1477100	0.6615000	-0.2175600	0.1151700	0.6853500	-0.4547500	-0.1210500	0.6853300	-0.4545300	-0.1210800	0.7588200	-0.2451900	-0.0518000
661	11.0000000	-0.1263100	0.3744500	-0.2740400	-0.0853600	0.3968100	-0.4206000	0.4533500	0.2525000	-0.3361700	0.0503700	-0.1565100	-0.3634700	-0.1622500	0.3546800	-0.1270100	9.2945500	3.7600000	3.9093200	0.2632300	0.0459900	0.1229200	0.4262800	0.2711000	-0.0753000	0.4620500	0.2742600	-0.1733700	0.3550300	-0.1574500	-0.2675100	0.6957000	-0.2511400	-0.0900300	0.3967000	0.2700700	0.0247600	0.2006900	-0.1638700	0.0039100	0.5834400	-0.2269000	0.0989200	0.5920000	-0.4278800	0.1469300	0.5921100	-0.4276500	0.1470000	0.6616700	-0.2180200	0.1145700	0.6848700	-0.4557900	-0.1214300	0.6848500	-0.4555600	-0.1214600	0.7578500	-0.2474500	-0.0520700
